<?xml version="1.0" encoding="UTF-8"?>
<svg width="345px" height="369px" viewBox="0 0 345 369" version="1.1" xmlns="http://www.w3.org/2000/svg" xmlns:xlink="http://www.w3.org/1999/xlink">
    <title>Group 17 Copy</title>
    <g id="Page-1" stroke="none" stroke-width="1" fill="none" fill-rule="evenodd">
        <g id="PNA-Homepage-UI---V2" transform="translate(-170.000000, -1110.000000)" fill="#4B555A">
            <g id="Group-17-Copy" transform="translate(170.000000, 1110.000000)">
                <circle id="Oval-Copy-63" cx="241.111111" cy="7.77777778" r="2.22222222"></circle>
                <circle id="Oval-Copy-120" cx="303.888889" cy="15.5555556" r="2.22222222"></circle>
                <circle id="Oval-Copy-119" cx="288.333333" cy="19.4444444" r="2.22222222"></circle>
                <circle id="Oval-Copy-118" cx="278.888889" cy="20" r="2.22222222"></circle>
                <circle id="Oval-Copy-121" cx="269.444444" cy="20.5555556" r="2.22222222"></circle>
                <circle id="Oval-Copy-116" cx="260" cy="17.2222222" r="2.22222222"></circle>
                <circle id="Oval-Copy-115" cx="250.555556" cy="17.2222222" r="2.22222222"></circle>
                <circle id="Oval-Copy-117" cx="250.555556" cy="9.44444444" r="2.22222222"></circle>
                <circle id="Oval-Copy-122" cx="252.777778" cy="2.22222222" r="2.22222222"></circle>
                <circle id="Oval-Copy-114" cx="241.111111" cy="17.2222222" r="2.22222222"></circle>
                <circle id="Oval-Copy-123" cx="235" cy="17.2222222" r="2.22222222"></circle>
                <circle id="Oval-Copy-159" cx="316.666667" cy="26.6666667" r="2.22222222"></circle>
                <circle id="Oval-Copy-160" cx="323.888889" cy="28.3333333" r="2.22222222"></circle>
                <circle id="Oval-Copy-161" cx="317.222222" cy="21.6666667" r="2.22222222"></circle>
                <circle id="Oval-Copy-158" cx="307.222222" cy="26.6666667" r="2.22222222"></circle>
                <circle id="Oval-Copy-163" cx="307.222222" cy="21.1111111" r="2.22222222"></circle>
                <circle id="Oval-Copy-157" cx="297.777778" cy="26.6666667" r="2.22222222"></circle>
                <circle id="Oval-Copy-162" cx="297.777778" cy="19.4444444" r="2.22222222"></circle>
                <circle id="Oval-Copy-156" cx="288.333333" cy="26.6666667" r="2.22222222"></circle>
                <circle id="Oval-Copy-155" cx="278.888889" cy="26.6666667" r="2.22222222"></circle>
                <circle id="Oval-Copy-154" cx="269.444444" cy="26.6666667" r="2.22222222"></circle>
                <circle id="Oval-Copy-153" cx="260" cy="26.6666667" r="2.22222222"></circle>
                <circle id="Oval-Copy-152" cx="250.555556" cy="26.6666667" r="2.22222222"></circle>
                <circle id="Oval-Copy-151" cx="241.111111" cy="26.6666667" r="2.22222222"></circle>
                <circle id="Oval-Copy-150" cx="232.222222" cy="26.6666667" r="2.22222222"></circle>
                <circle id="Oval-Copy-196" cx="316.666667" cy="36.1111111" r="2.22222222"></circle>
                <circle id="Oval-Copy-198" cx="326.111111" cy="36.1111111" r="2.22222222"></circle>
                <circle id="Oval-Copy-195" cx="307.222222" cy="36.1111111" r="2.22222222"></circle>
                <circle id="Oval-Copy-194" cx="297.777778" cy="36.1111111" r="2.22222222"></circle>
                <circle id="Oval-Copy-193" cx="288.333333" cy="36.1111111" r="2.22222222"></circle>
                <circle id="Oval-Copy-192" cx="278.888889" cy="36.1111111" r="2.22222222"></circle>
                <circle id="Oval-Copy-191" cx="269.444444" cy="36.1111111" r="2.22222222"></circle>
                <circle id="Oval-Copy-190" cx="260" cy="36.1111111" r="2.22222222"></circle>
                <circle id="Oval-Copy-189" cx="250.555556" cy="36.1111111" r="2.22222222"></circle>
                <circle id="Oval-Copy-188" cx="241.111111" cy="36.1111111" r="2.22222222"></circle>
                <circle id="Oval-Copy-187" cx="232.222222" cy="36.1111111" r="2.22222222"></circle>
                <circle id="Oval-Copy-234" cx="326.111111" cy="45.5555556" r="2.22222222"></circle>
                <circle id="Oval-Copy-233" cx="316.666667" cy="45.5555556" r="2.22222222"></circle>
                <circle id="Oval-Copy-232" cx="307.222222" cy="45.5555556" r="2.22222222"></circle>
                <circle id="Oval-Copy-231" cx="297.777778" cy="45.5555556" r="2.22222222"></circle>
                <circle id="Oval-Copy-230" cx="288.333333" cy="45.5555556" r="2.22222222"></circle>
                <circle id="Oval-Copy-229" cx="278.888889" cy="45.5555556" r="2.22222222"></circle>
                <circle id="Oval-Copy-228" cx="269.444444" cy="45.5555556" r="2.22222222"></circle>
                <circle id="Oval-Copy-235" cx="260.222222" cy="45.5555556" r="2.22222222"></circle>
                <circle id="Oval-Copy-226" cx="250.555556" cy="45.5555556" r="2.22222222"></circle>
                <circle id="Oval-Copy-225" cx="241.111111" cy="45.5555556" r="2.22222222"></circle>
                <circle id="Oval-Copy-224" cx="232.222222" cy="45.5555556" r="2.22222222"></circle>
                <circle id="Oval-Copy-271" cx="326.111111" cy="55" r="2.22222222"></circle>
                <circle id="Oval-Copy-270" cx="316.666667" cy="55" r="2.22222222"></circle>
                <circle id="Oval-Copy-269" cx="307.222222" cy="55" r="2.22222222"></circle>
                <circle id="Oval-Copy-268" cx="297.777778" cy="55" r="2.22222222"></circle>
                <circle id="Oval-Copy-267" cx="288.333333" cy="55" r="2.22222222"></circle>
                <circle id="Oval-Copy-266" cx="278.888889" cy="55" r="2.22222222"></circle>
                <circle id="Oval-Copy-265" cx="269.444444" cy="55" r="2.22222222"></circle>
                <circle id="Oval-Copy-264" cx="260" cy="55" r="2.22222222"></circle>
                <circle id="Oval-Copy-262" cx="241.111111" cy="55" r="2.22222222"></circle>
                <circle id="Oval-Copy-272" cx="250.555556" cy="55" r="2.22222222"></circle>
                <circle id="Oval-Copy-261" cx="232.222222" cy="55" r="2.22222222"></circle>
                <circle id="Oval-Copy-259" cx="213.333333" cy="55" r="2.22222222"></circle>
                <circle id="Oval-Copy-260" cx="222.777778" cy="55" r="2.22222222"></circle>
                <circle id="Oval-Copy-273" cx="222.777778" cy="45.5555556" r="2.22222222"></circle>
                <circle id="Oval-Copy-308" cx="326.111111" cy="64.4444444" r="2.22222222"></circle>
                <circle id="Oval-Copy-307" cx="316.666667" cy="64.4444444" r="2.22222222"></circle>
                <circle id="Oval-Copy-306" cx="307.222222" cy="64.4444444" r="2.22222222"></circle>
                <circle id="Oval-Copy-305" cx="297.777778" cy="64.4444444" r="2.22222222"></circle>
                <circle id="Oval-Copy-304" cx="288.333333" cy="64.4444444" r="2.22222222"></circle>
                <circle id="Oval-Copy-303" cx="278.888889" cy="64.4444444" r="2.22222222"></circle>
                <circle id="Oval-Copy-302" cx="269.444444" cy="64.4444444" r="2.22222222"></circle>
                <circle id="Oval-Copy-301" cx="260" cy="64.4444444" r="2.22222222"></circle>
                <circle id="Oval-Copy-300" cx="250.555556" cy="64.4444444" r="2.22222222"></circle>
                <circle id="Oval-Copy-299" cx="241.111111" cy="64.4444444" r="2.22222222"></circle>
                <circle id="Oval-Copy-298" cx="232.222222" cy="64.4444444" r="2.22222222"></circle>
                <circle id="Oval-Copy-297" cx="222.777778" cy="64.4444444" r="2.22222222"></circle>
                <circle id="Oval-Copy-296" cx="213.333333" cy="64.4444444" r="2.22222222"></circle>
                <circle id="Oval-Copy-311" cx="203.888889" cy="64.4444444" r="2.22222222"></circle>
                <circle id="Oval-Copy-294" cx="194.444444" cy="64.4444444" r="2.22222222"></circle>
                <circle id="Oval-Copy-345" cx="326.111111" cy="73.8888889" r="2.22222222"></circle>
                <circle id="Oval-Copy-346" cx="331.111111" cy="73.8888889" r="2.22222222"></circle>
                <circle id="Oval-Copy-344" cx="316.666667" cy="73.8888889" r="2.22222222"></circle>
                <circle id="Oval-Copy-343" cx="307.222222" cy="73.8888889" r="2.22222222"></circle>
                <circle id="Oval-Copy-342" cx="297.777778" cy="73.8888889" r="2.22222222"></circle>
                <circle id="Oval-Copy-341" cx="288.333333" cy="73.8888889" r="2.22222222"></circle>
                <circle id="Oval-Copy-340" cx="278.888889" cy="73.8888889" r="2.22222222"></circle>
                <circle id="Oval-Copy-339" cx="269.444444" cy="73.8888889" r="2.22222222"></circle>
                <circle id="Oval-Copy-338" cx="260" cy="73.8888889" r="2.22222222"></circle>
                <circle id="Oval-Copy-337" cx="250.555556" cy="73.8888889" r="2.22222222"></circle>
                <circle id="Oval-Copy-336" cx="241.111111" cy="73.8888889" r="2.22222222"></circle>
                <circle id="Oval-Copy-335" cx="232.222222" cy="73.8888889" r="2.22222222"></circle>
                <circle id="Oval-Copy-334" cx="222.777778" cy="73.8888889" r="2.22222222"></circle>
                <circle id="Oval-Copy-333" cx="213.333333" cy="73.8888889" r="2.22222222"></circle>
                <circle id="Oval-Copy-332" cx="203.888889" cy="73.8888889" r="2.22222222"></circle>
                <circle id="Oval-Copy-331" cx="194.444444" cy="73.8888889" r="2.22222222"></circle>
                <circle id="Oval-Copy-330" cx="185" cy="73.8888889" r="2.22222222"></circle>
                <circle id="Oval-Copy-383" cx="335.555556" cy="83.3333333" r="2.22222222"></circle>
                <circle id="Oval-Copy-382" cx="326.111111" cy="83.3333333" r="2.22222222"></circle>
                <circle id="Oval-Copy-381" cx="316.666667" cy="83.3333333" r="2.22222222"></circle>
                <circle id="Oval-Copy-380" cx="307.222222" cy="83.3333333" r="2.22222222"></circle>
                <circle id="Oval-Copy-379" cx="297.777778" cy="83.3333333" r="2.22222222"></circle>
                <circle id="Oval-Copy-378" cx="288.333333" cy="83.3333333" r="2.22222222"></circle>
                <circle id="Oval-Copy-377" cx="278.888889" cy="83.3333333" r="2.22222222"></circle>
                <circle id="Oval-Copy-376" cx="269.444444" cy="83.3333333" r="2.22222222"></circle>
                <circle id="Oval-Copy-375" cx="260" cy="83.3333333" r="2.22222222"></circle>
                <circle id="Oval-Copy-374" cx="250.555556" cy="83.3333333" r="2.22222222"></circle>
                <circle id="Oval-Copy-373" cx="241.111111" cy="83.3333333" r="2.22222222"></circle>
                <circle id="Oval-Copy-372" cx="232.222222" cy="83.3333333" r="2.22222222"></circle>
                <circle id="Oval-Copy-371" cx="222.777778" cy="83.3333333" r="2.22222222"></circle>
                <circle id="Oval-Copy-370" cx="213.333333" cy="83.3333333" r="2.22222222"></circle>
                <circle id="Oval-Copy-369" cx="203.888889" cy="83.3333333" r="2.22222222"></circle>
                <circle id="Oval-Copy-368" cx="194.444444" cy="83.3333333" r="2.22222222"></circle>
                <circle id="Oval-Copy-367" cx="185" cy="83.3333333" r="2.22222222"></circle>
                <circle id="Oval-Copy-366" cx="175.555556" cy="83.3333333" r="2.22222222"></circle>
                <circle id="Oval-Copy-420" cx="335.555556" cy="92.7777778" r="2.22222222"></circle>
                <circle id="Oval-Copy-423" cx="342.777778" cy="90.5555556" r="2.22222222"></circle>
                <circle id="Oval-Copy-421" cx="335.555556" cy="102.222222" r="2.22222222"></circle>
                <circle id="Oval-Copy-426" cx="341.666667" cy="100" r="2.22222222"></circle>
                <circle id="Oval-Copy-419" cx="326.111111" cy="92.7777778" r="2.22222222"></circle>
                <circle id="Oval-Copy-422" cx="326.111111" cy="100" r="2.22222222"></circle>
                <circle id="Oval-Copy-418" cx="316.666667" cy="92.7777778" r="2.22222222"></circle>
                <circle id="Oval-Copy-424" cx="316.666667" cy="99.4444444" r="2.22222222"></circle>
                <circle id="Oval-Copy-417" cx="307.222222" cy="92.7777778" r="2.22222222"></circle>
                <circle id="Oval-Copy-425" cx="307.222222" cy="100" r="2.22222222"></circle>
                <circle id="Oval-Copy-416" cx="297.777778" cy="92.7777778" r="2.22222222"></circle>
                <circle id="Oval-Copy-415" cx="288.333333" cy="92.7777778" r="2.22222222"></circle>
                <circle id="Oval-Copy-414" cx="278.888889" cy="92.7777778" r="2.22222222"></circle>
                <circle id="Oval-Copy-413" cx="269.444444" cy="92.7777778" r="2.22222222"></circle>
                <circle id="Oval-Copy-412" cx="260" cy="92.7777778" r="2.22222222"></circle>
                <circle id="Oval-Copy-411" cx="250.555556" cy="92.7777778" r="2.22222222"></circle>
                <circle id="Oval-Copy-410" cx="241.111111" cy="92.7777778" r="2.22222222"></circle>
                <circle id="Oval-Copy-409" cx="232.222222" cy="92.7777778" r="2.22222222"></circle>
                <circle id="Oval-Copy-408" cx="222.777778" cy="92.7777778" r="2.22222222"></circle>
                <circle id="Oval-Copy-407" cx="213.333333" cy="92.7777778" r="2.22222222"></circle>
                <circle id="Oval-Copy-406" cx="203.888889" cy="92.7777778" r="2.22222222"></circle>
                <circle id="Oval-Copy-405" cx="194.444444" cy="92.7777778" r="2.22222222"></circle>
                <circle id="Oval-Copy-404" cx="185" cy="92.7777778" r="2.22222222"></circle>
                <circle id="Oval-Copy-403" cx="175.555556" cy="92.7777778" r="2.22222222"></circle>
                <circle id="Oval-Copy-427" cx="167.777778" cy="92.7777778" r="2.22222222"></circle>
                <circle id="Oval-Copy-453" cx="297.777778" cy="102.222222" r="2.22222222"></circle>
                <circle id="Oval-Copy-454" cx="297.777778" cy="110.555556" r="2.22222222"></circle>
                <circle id="Oval-Copy-455" cx="305" cy="108.333333" r="2.22222222"></circle>
                <circle id="Oval-Copy-452" cx="288.333333" cy="102.222222" r="2.22222222"></circle>
                <circle id="Oval-Copy-451" cx="278.888889" cy="102.222222" r="2.22222222"></circle>
                <circle id="Oval-Copy-450" cx="269.444444" cy="102.222222" r="2.22222222"></circle>
                <circle id="Oval-Copy-449" cx="260" cy="102.222222" r="2.22222222"></circle>
                <circle id="Oval-Copy-448" cx="250.555556" cy="102.222222" r="2.22222222"></circle>
                <circle id="Oval-Copy-447" cx="241.111111" cy="102.222222" r="2.22222222"></circle>
                <circle id="Oval-Copy-446" cx="232.222222" cy="102.222222" r="2.22222222"></circle>
                <circle id="Oval-Copy-445" cx="222.777778" cy="102.222222" r="2.22222222"></circle>
                <circle id="Oval-Copy-444" cx="213.333333" cy="102.222222" r="2.22222222"></circle>
                <circle id="Oval-Copy-443" cx="203.888889" cy="102.222222" r="2.22222222"></circle>
                <circle id="Oval-Copy-442" cx="194.444444" cy="102.222222" r="2.22222222"></circle>
                <circle id="Oval-Copy-441" cx="185" cy="102.222222" r="2.22222222"></circle>
                <circle id="Oval-Copy-440" cx="175.555556" cy="102.222222" r="2.22222222"></circle>
                <circle id="Oval-Copy-439" cx="166.111111" cy="102.222222" r="2.22222222"></circle>
                <circle id="Oval-Copy-489" cx="288.333333" cy="111.111111" r="2.22222222"></circle>
                <circle id="Oval-Copy-488" cx="278.888889" cy="111.111111" r="2.22222222"></circle>
                <circle id="Oval-Copy-487" cx="269.444444" cy="111.111111" r="2.22222222"></circle>
                <circle id="Oval-Copy-486" cx="260" cy="111.111111" r="2.22222222"></circle>
                <circle id="Oval-Copy-485" cx="250.555556" cy="111.111111" r="2.22222222"></circle>
                <circle id="Oval-Copy-484" cx="241.111111" cy="111.111111" r="2.22222222"></circle>
                <circle id="Oval-Copy-483" cx="232.222222" cy="111.111111" r="2.22222222"></circle>
                <circle id="Oval-Copy-482" cx="222.777778" cy="111.111111" r="2.22222222"></circle>
                <circle id="Oval-Copy-481" cx="213.333333" cy="111.111111" r="2.22222222"></circle>
                <circle id="Oval-Copy-480" cx="203.888889" cy="111.111111" r="2.22222222"></circle>
                <circle id="Oval-Copy-491" cx="193.888889" cy="111.111111" r="2.22222222"></circle>
                <circle id="Oval-Copy-478" cx="185" cy="111.111111" r="2.22222222"></circle>
                <circle id="Oval-Copy-477" cx="175.555556" cy="111.111111" r="2.22222222"></circle>
                <circle id="Oval-Copy-476" cx="166.111111" cy="111.111111" r="2.22222222"></circle>
                <circle id="Oval-Copy-490" cx="160" cy="111.111111" r="2.22222222"></circle>
                <circle id="Oval-Copy-526" cx="288.333333" cy="120.555556" r="2.22222222"></circle>
                <circle id="Oval-Copy-525" cx="278.888889" cy="120.555556" r="2.22222222"></circle>
                <circle id="Oval-Copy-524" cx="269.444444" cy="120.555556" r="2.22222222"></circle>
                <circle id="Oval-Copy-523" cx="260" cy="120.555556" r="2.22222222"></circle>
                <circle id="Oval-Copy-522" cx="250.555556" cy="120.555556" r="2.22222222"></circle>
                <circle id="Oval-Copy-521" cx="241.111111" cy="120.555556" r="2.22222222"></circle>
                <circle id="Oval-Copy-520" cx="232.222222" cy="120.555556" r="2.22222222"></circle>
                <circle id="Oval-Copy-519" cx="222.777778" cy="120.555556" r="2.22222222"></circle>
                <circle id="Oval-Copy-518" cx="213.333333" cy="120.555556" r="2.22222222"></circle>
                <circle id="Oval-Copy-517" cx="203.888889" cy="120.555556" r="2.22222222"></circle>
                <circle id="Oval-Copy-516" cx="194.444444" cy="120.555556" r="2.22222222"></circle>
                <circle id="Oval-Copy-515" cx="185" cy="120.555556" r="2.22222222"></circle>
                <circle id="Oval-Copy-514" cx="175.555556" cy="120.555556" r="2.22222222"></circle>
                <circle id="Oval-Copy-513" cx="166.111111" cy="120.555556" r="2.22222222"></circle>
                <circle id="Oval-Copy-527" cx="156.666667" cy="120.555556" r="2.22222222"></circle>
                <circle id="Oval-Copy-563" cx="288.333333" cy="130" r="2.22222222"></circle>
                <circle id="Oval-Copy-562" cx="278.888889" cy="130" r="2.22222222"></circle>
                <circle id="Oval-Copy-561" cx="269.444444" cy="130" r="2.22222222"></circle>
                <circle id="Oval-Copy-560" cx="260" cy="130" r="2.22222222"></circle>
                <circle id="Oval-Copy-559" cx="250.555556" cy="130" r="2.22222222"></circle>
                <circle id="Oval-Copy-558" cx="241.111111" cy="130" r="2.22222222"></circle>
                <circle id="Oval-Copy-557" cx="232.222222" cy="130" r="2.22222222"></circle>
                <circle id="Oval-Copy-556" cx="222.777778" cy="130" r="2.22222222"></circle>
                <circle id="Oval-Copy-555" cx="213.333333" cy="130" r="2.22222222"></circle>
                <circle id="Oval-Copy-554" cx="203.888889" cy="130" r="2.22222222"></circle>
                <circle id="Oval-Copy-553" cx="194.444444" cy="130" r="2.22222222"></circle>
                <circle id="Oval-Copy-552" cx="185" cy="130" r="2.22222222"></circle>
                <circle id="Oval-Copy-551" cx="175.555556" cy="130" r="2.22222222"></circle>
                <circle id="Oval-Copy-550" cx="166.111111" cy="130" r="2.22222222"></circle>
                <circle id="Oval-Copy-564" cx="156.666667" cy="130" r="2.22222222"></circle>
                <circle id="Oval-Copy-599" cx="278.888889" cy="139.444444" r="2.22222222"></circle>
                <circle id="Oval-Copy-598" cx="269.444444" cy="139.444444" r="2.22222222"></circle>
                <circle id="Oval-Copy-601" cx="269.444444" cy="146.111111" r="2.22222222"></circle>
                <circle id="Oval-Copy-597" cx="260" cy="139.444444" r="2.22222222"></circle>
                <circle id="Oval-Copy-596" cx="250.555556" cy="139.444444" r="2.22222222"></circle>
                <circle id="Oval-Copy-595" cx="241.111111" cy="139.444444" r="2.22222222"></circle>
                <circle id="Oval-Copy-594" cx="232.222222" cy="139.444444" r="2.22222222"></circle>
                <circle id="Oval-Copy-593" cx="222.777778" cy="139.444444" r="2.22222222"></circle>
                <circle id="Oval-Copy-592" cx="213.333333" cy="139.444444" r="2.22222222"></circle>
                <circle id="Oval-Copy-591" cx="203.888889" cy="139.444444" r="2.22222222"></circle>
                <circle id="Oval-Copy-590" cx="194.444444" cy="139.444444" r="2.22222222"></circle>
                <circle id="Oval-Copy-589" cx="185" cy="139.444444" r="2.22222222"></circle>
                <circle id="Oval-Copy-588" cx="175.555556" cy="139.444444" r="2.22222222"></circle>
                <circle id="Oval-Copy-600" cx="166.111111" cy="139.444444" r="2.22222222"></circle>
                <circle id="Oval-Copy-602" cx="158.888889" cy="139.444444" r="2.22222222"></circle>
                <circle id="Oval-Copy-634" cx="260" cy="148.888889" r="2.22222222"></circle>
                <circle id="Oval-Copy-633" cx="250.555556" cy="148.888889" r="2.22222222"></circle>
                <circle id="Oval-Copy-632" cx="241.111111" cy="148.888889" r="2.22222222"></circle>
                <circle id="Oval-Copy-631" cx="232.222222" cy="148.888889" r="2.22222222"></circle>
                <circle id="Oval-Copy-630" cx="222.777778" cy="148.888889" r="2.22222222"></circle>
                <circle id="Oval-Copy-629" cx="213.333333" cy="148.888889" r="2.22222222"></circle>
                <circle id="Oval-Copy-628" cx="203.888889" cy="148.888889" r="2.22222222"></circle>
                <circle id="Oval-Copy-627" cx="194.444444" cy="148.888889" r="2.22222222"></circle>
                <circle id="Oval-Copy-626" cx="185" cy="148.888889" r="2.22222222"></circle>
                <circle id="Oval-Copy-625" cx="175.555556" cy="148.888889" r="2.22222222"></circle>
                <circle id="Oval-Copy-624" cx="166.111111" cy="148.888889" r="2.22222222"></circle>
                <circle id="Oval-Copy-635" cx="159.444444" cy="148.888889" r="2.22222222"></circle>
                <circle id="Oval-Copy-670" cx="250.555556" cy="158.333333" r="2.22222222"></circle>
                <circle id="Oval-Copy-673" cx="247.222222" cy="166.111111" r="2.22222222"></circle>
                <circle id="Oval-Copy-669" cx="241.111111" cy="158.333333" r="2.22222222"></circle>
                <circle id="Oval-Copy-674" cx="241.111111" cy="164.444444" r="2.22222222"></circle>
                <circle id="Oval-Copy-668" cx="232.222222" cy="158.333333" r="2.22222222"></circle>
                <circle id="Oval-Copy-675" cx="232.222222" cy="164.444444" r="2.22222222"></circle>
                <circle id="Oval-Copy-667" cx="222.777778" cy="158.333333" r="2.22222222"></circle>
                <circle id="Oval-Copy-671" cx="222.777778" cy="165" r="2.22222222"></circle>
                <circle id="Oval-Copy-666" cx="213.333333" cy="158.333333" r="2.22222222"></circle>
                <circle id="Oval-Copy-672" cx="213.333333" cy="165.555556" r="2.22222222"></circle>
                <circle id="Oval-Copy-665" cx="203.888889" cy="158.333333" r="2.22222222"></circle>
                <circle id="Oval-Copy-664" cx="194.444444" cy="158.333333" r="2.22222222"></circle>
                <circle id="Oval-Copy-663" cx="185" cy="158.333333" r="2.22222222"></circle>
                <circle id="Oval-Copy-662" cx="175.555556" cy="158.333333" r="2.22222222"></circle>
                <circle id="Oval-Copy-661" cx="166.111111" cy="158.333333" r="2.22222222"></circle>
                <circle id="Oval-Copy-660" cx="156.666667" cy="158.333333" r="2.22222222"></circle>
                <circle id="Oval-Copy-702" cx="203.888889" cy="167.777778" r="2.22222222"></circle>
                <circle id="Oval-Copy-701" cx="194.444444" cy="167.777778" r="2.22222222"></circle>
                <circle id="Oval-Copy-703" cx="194.444444" cy="175.555556" r="2.22222222"></circle>
                <circle id="Oval-Copy-700" cx="185" cy="167.777778" r="2.22222222"></circle>
                <circle id="Oval-Copy-699" cx="175.555556" cy="167.777778" r="2.22222222"></circle>
                <circle id="Oval-Copy-698" cx="166.111111" cy="167.777778" r="2.22222222"></circle>
                <circle id="Oval-Copy-697" cx="156.666667" cy="167.777778" r="2.22222222"></circle>
                <circle id="Oval-Copy-696" cx="147.222222" cy="167.777778" r="2.22222222"></circle>
                <circle id="Oval-Copy-737" cx="185" cy="177.222222" r="2.22222222"></circle>
                <circle id="Oval-Copy-736" cx="175.555556" cy="177.222222" r="2.22222222"></circle>
                <circle id="Oval-Copy-735" cx="166.111111" cy="177.222222" r="2.22222222"></circle>
                <circle id="Oval-Copy-734" cx="156.666667" cy="177.222222" r="2.22222222"></circle>
                <circle id="Oval-Copy-733" cx="147.222222" cy="177.222222" r="2.22222222"></circle>
                <circle id="Oval-Copy-732" cx="137.777778" cy="177.222222" r="2.22222222"></circle>
                <circle id="Oval-Copy-773" cx="169.444444" cy="186.666667" r="2.22222222"></circle>
                <circle id="Oval-Copy-774" cx="178.888889" cy="186.666667" r="2.22222222"></circle>
                <circle id="Oval-Copy-772" cx="160" cy="186.666667" r="2.22222222"></circle>
                <circle id="Oval-Copy-771" cx="150.555556" cy="186.666667" r="2.22222222"></circle>
                <circle id="Oval-Copy-770" cx="141.111111" cy="186.666667" r="2.22222222"></circle>
                <circle id="Oval-Copy-769" cx="131.666667" cy="186.666667" r="2.22222222"></circle>
                <circle id="Oval-Copy-810" cx="169.444444" cy="196.111111" r="2.22222222"></circle>
                <circle id="Oval-Copy-811" cx="178.888889" cy="196.111111" r="2.22222222"></circle>
                <circle id="Oval-Copy-809" cx="160" cy="196.111111" r="2.22222222"></circle>
                <circle id="Oval-Copy-808" cx="150.555556" cy="196.111111" r="2.22222222"></circle>
                <circle id="Oval-Copy-807" cx="141.111111" cy="196.111111" r="2.22222222"></circle>
                <circle id="Oval-Copy-806" cx="131.666667" cy="196.111111" r="2.22222222"></circle>
                <circle id="Oval-Copy-805" cx="122.222222" cy="196.111111" r="2.22222222"></circle>
                <circle id="Oval-Copy-804" cx="112.777778" cy="196.111111" r="2.22222222"></circle>
                <circle id="Oval-Copy-847" cx="169.444444" cy="205.555556" r="2.22222222"></circle>
                <circle id="Oval-Copy-848" cx="178.888889" cy="205.555556" r="2.22222222"></circle>
                <circle id="Oval-Copy-846" cx="160" cy="205.555556" r="2.22222222"></circle>
                <circle id="Oval-Copy-845" cx="150.555556" cy="205.555556" r="2.22222222"></circle>
                <circle id="Oval-Copy-844" cx="141.111111" cy="205.555556" r="2.22222222"></circle>
                <circle id="Oval-Copy-843" cx="131.666667" cy="205.555556" r="2.22222222"></circle>
                <circle id="Oval-Copy-842" cx="122.222222" cy="205.555556" r="2.22222222"></circle>
                <circle id="Oval-Copy-841" cx="112.777778" cy="205.555556" r="2.22222222"></circle>
                <circle id="Oval-Copy-840" cx="103.888889" cy="205.555556" r="2.22222222"></circle>
                <circle id="Oval-Copy-839" cx="94.4444444" cy="205.555556" r="2.22222222"></circle>
                <circle id="Oval-Copy-884" cx="169.444444" cy="215" r="2.22222222"></circle>
                <circle id="Oval-Copy-885" cx="178.888889" cy="215" r="2.22222222"></circle>
                <circle id="Oval-Copy-883" cx="160" cy="215" r="2.22222222"></circle>
                <circle id="Oval-Copy-882" cx="150.555556" cy="215" r="2.22222222"></circle>
                <circle id="Oval-Copy-881" cx="141.111111" cy="215" r="2.22222222"></circle>
                <circle id="Oval-Copy-880" cx="131.666667" cy="215" r="2.22222222"></circle>
                <circle id="Oval-Copy-879" cx="122.222222" cy="215" r="2.22222222"></circle>
                <circle id="Oval-Copy-878" cx="112.777778" cy="215" r="2.22222222"></circle>
                <circle id="Oval-Copy-877" cx="103.888889" cy="215" r="2.22222222"></circle>
                <circle id="Oval-Copy-876" cx="94.4444444" cy="215" r="2.22222222"></circle>
                <circle id="Oval-Copy-886" cx="85" cy="215" r="2.22222222"></circle>
                <circle id="Oval-Copy-921" cx="169.444444" cy="224.444444" r="2.22222222"></circle>
                <circle id="Oval-Copy-922" cx="178.888889" cy="224.444444" r="2.22222222"></circle>
                <circle id="Oval-Copy-920" cx="160" cy="224.444444" r="2.22222222"></circle>
                <circle id="Oval-Copy-919" cx="150.555556" cy="224.444444" r="2.22222222"></circle>
                <circle id="Oval-Copy-918" cx="141.111111" cy="224.444444" r="2.22222222"></circle>
                <circle id="Oval-Copy-917" cx="131.666667" cy="224.444444" r="2.22222222"></circle>
                <circle id="Oval-Copy-916" cx="122.222222" cy="224.444444" r="2.22222222"></circle>
                <circle id="Oval-Copy-915" cx="112.777778" cy="224.444444" r="2.22222222"></circle>
                <circle id="Oval-Copy-914" cx="103.888889" cy="224.444444" r="2.22222222"></circle>
                <circle id="Oval-Copy-913" cx="94.4444444" cy="224.444444" r="2.22222222"></circle>
                <circle id="Oval-Copy-912" cx="85" cy="224.444444" r="2.22222222"></circle>
                <circle id="Oval-Copy-958" cx="169.444444" cy="233.888889" r="2.22222222"></circle>
                <circle id="Oval-Copy-959" cx="178.888889" cy="233.888889" r="2.22222222"></circle>
                <circle id="Oval-Copy-957" cx="160" cy="233.888889" r="2.22222222"></circle>
                <circle id="Oval-Copy-956" cx="150.555556" cy="233.888889" r="2.22222222"></circle>
                <circle id="Oval-Copy-955" cx="141.111111" cy="233.888889" r="2.22222222"></circle>
                <circle id="Oval-Copy-954" cx="131.666667" cy="233.888889" r="2.22222222"></circle>
                <circle id="Oval-Copy-953" cx="122.222222" cy="233.888889" r="2.22222222"></circle>
                <circle id="Oval-Copy-952" cx="112.777778" cy="233.888889" r="2.22222222"></circle>
                <circle id="Oval-Copy-951" cx="103.888889" cy="233.888889" r="2.22222222"></circle>
                <circle id="Oval-Copy-950" cx="94.4444444" cy="233.888889" r="2.22222222"></circle>
                <circle id="Oval-Copy-949" cx="85" cy="233.888889" r="2.22222222"></circle>
                <circle id="Oval-Copy-948" cx="75.5555556" cy="233.888889" r="2.22222222"></circle>
                <circle id="Oval-Copy-995" cx="169.444444" cy="243.333333" r="2.22222222"></circle>
                <circle id="Oval-Copy-997" cx="169.444444" cy="252.222222" r="2.22222222"></circle>
                <circle id="Oval-Copy-996" cx="178.888889" cy="243.333333" r="2.22222222"></circle>
                <circle id="Oval-Copy-998" cx="178.888889" cy="252.222222" r="2.22222222"></circle>
                <circle id="Oval-Copy-994" cx="160" cy="243.333333" r="2.22222222"></circle>
                <circle id="Oval-Copy-999" cx="160" cy="252.222222" r="2.22222222"></circle>
                <circle id="Oval-Copy-993" cx="150.555556" cy="243.333333" r="2.22222222"></circle>
                <circle id="Oval-Copy-1000" cx="150.555556" cy="252.222222" r="2.22222222"></circle>
                <circle id="Oval-Copy-992" cx="141.111111" cy="243.333333" r="2.22222222"></circle>
                <circle id="Oval-Copy-1001" cx="141.111111" cy="252.222222" r="2.22222222"></circle>
                <circle id="Oval-Copy-991" cx="131.666667" cy="243.333333" r="2.22222222"></circle>
                <circle id="Oval-Copy-1002" cx="131.666667" cy="252.222222" r="2.22222222"></circle>
                <circle id="Oval-Copy-990" cx="122.222222" cy="243.333333" r="2.22222222"></circle>
                <circle id="Oval-Copy-1003" cx="122.222222" cy="252.222222" r="2.22222222"></circle>
                <circle id="Oval-Copy-989" cx="112.777778" cy="243.333333" r="2.22222222"></circle>
                <circle id="Oval-Copy-1004" cx="112.777778" cy="252.222222" r="2.22222222"></circle>
                <circle id="Oval-Copy-988" cx="103.888889" cy="243.333333" r="2.22222222"></circle>
                <circle id="Oval-Copy-987" cx="94.4444444" cy="243.333333" r="2.22222222"></circle>
                <circle id="Oval-Copy-986" cx="85" cy="243.333333" r="2.22222222"></circle>
                <circle id="Oval-Copy-985" cx="75.5555556" cy="243.333333" r="2.22222222"></circle>
                <circle id="Oval-Copy-984" cx="66.1111111" cy="243.333333" r="2.22222222"></circle>
                <circle id="Oval-Copy-983" cx="56.6666667" cy="243.333333" r="2.22222222"></circle>
                <circle id="Oval-Copy-1025" cx="103.888889" cy="252.222222" r="2.22222222"></circle>
                <circle id="Oval-Copy-1024" cx="94.4444444" cy="252.222222" r="2.22222222"></circle>
                <circle id="Oval-Copy-1023" cx="85" cy="252.222222" r="2.22222222"></circle>
                <circle id="Oval-Copy-1022" cx="75.5555556" cy="252.222222" r="2.22222222"></circle>
                <circle id="Oval-Copy-1021" cx="66.1111111" cy="252.222222" r="2.22222222"></circle>
                <circle id="Oval-Copy-1020" cx="56.6666667" cy="252.222222" r="2.22222222"></circle>
                <circle id="Oval-Copy-1062" cx="103.888889" cy="261.666667" r="2.22222222"></circle>
                <circle id="Oval-Copy-1063" cx="112.777778" cy="261.666667" r="2.22222222"></circle>
                <circle id="Oval-Copy-1061" cx="94.4444444" cy="261.666667" r="2.22222222"></circle>
                <circle id="Oval-Copy-1060" cx="85" cy="261.666667" r="2.22222222"></circle>
                <circle id="Oval-Copy-1059" cx="75.5555556" cy="261.666667" r="2.22222222"></circle>
                <circle id="Oval-Copy-1058" cx="66.1111111" cy="261.666667" r="2.22222222"></circle>
                <circle id="Oval-Copy-1057" cx="56.6666667" cy="261.666667" r="2.22222222"></circle>
                <circle id="Oval-Copy-1099" cx="103.888889" cy="271.111111" r="2.22222222"></circle>
                <circle id="Oval-Copy-1101" cx="112.777778" cy="271.111111" r="2.22222222"></circle>
                <circle id="Oval-Copy-1098" cx="94.4444444" cy="271.111111" r="2.22222222"></circle>
                <circle id="Oval-Copy-1097" cx="85" cy="271.111111" r="2.22222222"></circle>
                <circle id="Oval-Copy-1096" cx="75.5555556" cy="271.111111" r="2.22222222"></circle>
                <circle id="Oval-Copy-1095" cx="66.1111111" cy="271.111111" r="2.22222222"></circle>
                <circle id="Oval-Copy-1094" cx="56.6666667" cy="271.111111" r="2.22222222"></circle>
                <circle id="Oval-Copy-1100" cx="50" cy="271.111111" r="2.22222222"></circle>
                <circle id="Oval-Copy-1136" cx="103.888889" cy="280.555556" r="2.22222222"></circle>
                <circle id="Oval-Copy-1138" cx="112.777778" cy="280.555556" r="2.22222222"></circle>
                <circle id="Oval-Copy-1135" cx="94.4444444" cy="280.555556" r="2.22222222"></circle>
                <circle id="Oval-Copy-1134" cx="85" cy="280.555556" r="2.22222222"></circle>
                <circle id="Oval-Copy-1133" cx="75.5555556" cy="280.555556" r="2.22222222"></circle>
                <circle id="Oval-Copy-1132" cx="66.1111111" cy="280.555556" r="2.22222222"></circle>
                <circle id="Oval-Copy-1131" cx="56.6666667" cy="280.555556" r="2.22222222"></circle>
                <circle id="Oval-Copy-1137" cx="47.2222222" cy="280.555556" r="2.22222222"></circle>
                <circle id="Oval-Copy-1173" cx="103.888889" cy="290" r="2.22222222"></circle>
                <circle id="Oval-Copy-1174" cx="112.777778" cy="290" r="2.22222222"></circle>
                <circle id="Oval-Copy-1172" cx="94.4444444" cy="290" r="2.22222222"></circle>
                <circle id="Oval-Copy-1171" cx="85" cy="290" r="2.22222222"></circle>
                <circle id="Oval-Copy-1170" cx="75.5555556" cy="290" r="2.22222222"></circle>
                <circle id="Oval-Copy-1169" cx="66.1111111" cy="290" r="2.22222222"></circle>
                <circle id="Oval-Copy-1168" cx="56.6666667" cy="290" r="2.22222222"></circle>
                <circle id="Oval-Copy-1167" cx="47.2222222" cy="290" r="2.22222222"></circle>
                <circle id="Oval-Copy-1166" cx="37.7777778" cy="290" r="2.22222222"></circle>
                <circle id="Oval-Copy-1210" cx="103.888889" cy="299.444444" r="2.22222222"></circle>
                <circle id="Oval-Copy-1211" cx="112.777778" cy="299.444444" r="2.22222222"></circle>
                <circle id="Oval-Copy-1209" cx="94.4444444" cy="299.444444" r="2.22222222"></circle>
                <circle id="Oval-Copy-1208" cx="85" cy="299.444444" r="2.22222222"></circle>
                <circle id="Oval-Copy-1207" cx="75.5555556" cy="299.444444" r="2.22222222"></circle>
                <circle id="Oval-Copy-1206" cx="66.1111111" cy="299.444444" r="2.22222222"></circle>
                <circle id="Oval-Copy-1205" cx="56.6666667" cy="299.444444" r="2.22222222"></circle>
                <circle id="Oval-Copy-1204" cx="47.2222222" cy="299.444444" r="2.22222222"></circle>
                <circle id="Oval-Copy-1203" cx="37.7777778" cy="299.444444" r="2.22222222"></circle>
                <circle id="Oval-Copy-1212" cx="28.3333333" cy="299.444444" r="2.22222222"></circle>
                <circle id="Oval-Copy-1247" cx="103.888889" cy="308.888889" r="2.22222222"></circle>
                <circle id="Oval-Copy-1249" cx="112.777778" cy="307.222222" r="2.22222222"></circle>
                <circle id="Oval-Copy-1246" cx="94.4444444" cy="308.888889" r="2.22222222"></circle>
                <circle id="Oval-Copy-1248" cx="94.4444444" cy="316.111111" r="2.22222222"></circle>
                <circle id="Oval-Copy-1245" cx="85" cy="308.888889" r="2.22222222"></circle>
                <circle id="Oval-Copy-1244" cx="75.5555556" cy="308.888889" r="2.22222222"></circle>
                <circle id="Oval-Copy-1243" cx="66.1111111" cy="308.888889" r="2.22222222"></circle>
                <circle id="Oval-Copy-1242" cx="56.6666667" cy="308.888889" r="2.22222222"></circle>
                <circle id="Oval-Copy-1241" cx="47.2222222" cy="308.888889" r="2.22222222"></circle>
                <circle id="Oval-Copy-1240" cx="37.7777778" cy="308.888889" r="2.22222222"></circle>
                <circle id="Oval-Copy-1250" cx="28.3333333" cy="308.888889" r="2.22222222"></circle>
                <circle id="Oval-Copy-1282" cx="85" cy="318.333333" r="2.22222222"></circle>
                <circle id="Oval-Copy-1281" cx="75.5555556" cy="318.333333" r="2.22222222"></circle>
                <circle id="Oval-Copy-1280" cx="66.1111111" cy="318.333333" r="2.22222222"></circle>
                <circle id="Oval-Copy-1279" cx="56.6666667" cy="318.333333" r="2.22222222"></circle>
                <circle id="Oval-Copy-1278" cx="47.2222222" cy="318.333333" r="2.22222222"></circle>
                <circle id="Oval-Copy-1277" cx="37.7777778" cy="318.333333" r="2.22222222"></circle>
                <circle id="Oval-Copy-1276" cx="28.3333333" cy="318.333333" r="2.22222222"></circle>
                <circle id="Oval-Copy-1319" cx="85" cy="327.777778" r="2.22222222"></circle>
                <circle id="Oval-Copy-1318" cx="75.5555556" cy="327.777778" r="2.22222222"></circle>
                <circle id="Oval-Copy-1317" cx="66.1111111" cy="327.777778" r="2.22222222"></circle>
                <circle id="Oval-Copy-1316" cx="56.6666667" cy="327.777778" r="2.22222222"></circle>
                <circle id="Oval-Copy-1315" cx="47.2222222" cy="327.777778" r="2.22222222"></circle>
                <circle id="Oval-Copy-1314" cx="37.7777778" cy="327.777778" r="2.22222222"></circle>
                <circle id="Oval-Copy-1313" cx="28.3333333" cy="327.777778" r="2.22222222"></circle>
                <circle id="Oval-Copy-1312" cx="18.8888889" cy="327.777778" r="2.22222222"></circle>
                <circle id="Oval-Copy-1356" cx="85" cy="337.222222" r="2.22222222"></circle>
                <circle id="Oval-Copy-1355" cx="75.5555556" cy="337.222222" r="2.22222222"></circle>
                <circle id="Oval-Copy-1354" cx="66.1111111" cy="337.222222" r="2.22222222"></circle>
                <circle id="Oval-Copy-1353" cx="56.6666667" cy="337.222222" r="2.22222222"></circle>
                <circle id="Oval-Copy-1352" cx="47.2222222" cy="337.222222" r="2.22222222"></circle>
                <circle id="Oval-Copy-1351" cx="37.7777778" cy="337.222222" r="2.22222222"></circle>
                <circle id="Oval-Copy-1350" cx="28.3333333" cy="337.222222" r="2.22222222"></circle>
                <circle id="Oval-Copy-1349" cx="18.8888889" cy="337.222222" r="2.22222222"></circle>
                <circle id="Oval-Copy-1357" cx="9.44444444" cy="337.222222" r="2.22222222"></circle>
                <circle id="Oval-Copy-1393" cx="85" cy="346.666667" r="2.22222222"></circle>
                <circle id="Oval-Copy-1392" cx="75.5555556" cy="346.666667" r="2.22222222"></circle>
                <circle id="Oval-Copy-1391" cx="66.1111111" cy="346.666667" r="2.22222222"></circle>
                <circle id="Oval-Copy-1390" cx="56.6666667" cy="346.666667" r="2.22222222"></circle>
                <circle id="Oval-Copy-1389" cx="47.2222222" cy="346.666667" r="2.22222222"></circle>
                <circle id="Oval-Copy-1388" cx="37.7777778" cy="346.666667" r="2.22222222"></circle>
                <circle id="Oval-Copy-1387" cx="28.3333333" cy="346.666667" r="2.22222222"></circle>
                <circle id="Oval-Copy-1386" cx="18.8888889" cy="346.666667" r="2.22222222"></circle>
                <circle id="Oval-Copy-1385" cx="9.44444444" cy="346.666667" r="2.22222222"></circle>
                <circle id="Oval-Copy-1394" cx="2.22222222" cy="346.666667" r="2.22222222"></circle>
                <circle id="Oval-Copy-1395" cx="2.22222222" cy="356.111111" r="2.22222222"></circle>
                <circle id="Oval-Copy-1396" cx="2.22222222" cy="366.111111" r="2.22222222"></circle>
                <circle id="Oval-Copy-1430" cx="85" cy="356.111111" r="2.22222222"></circle>
                <circle id="Oval-Copy-1429" cx="75.5555556" cy="356.111111" r="2.22222222"></circle>
                <circle id="Oval-Copy-1428" cx="66.1111111" cy="356.111111" r="2.22222222"></circle>
                <circle id="Oval-Copy-1427" cx="56.6666667" cy="356.111111" r="2.22222222"></circle>
                <circle id="Oval-Copy-1426" cx="47.2222222" cy="356.111111" r="2.22222222"></circle>
                <circle id="Oval-Copy-1425" cx="37.7777778" cy="356.111111" r="2.22222222"></circle>
                <circle id="Oval-Copy-1424" cx="28.3333333" cy="356.111111" r="2.22222222"></circle>
                <circle id="Oval-Copy-1423" cx="18.8888889" cy="356.111111" r="2.22222222"></circle>
                <circle id="Oval-Copy-1422" cx="9.44444444" cy="356.111111" r="2.22222222"></circle>
            </g>
        </g>
    </g>
</svg>